<svg xmlns="http://www.w3.org/2000/svg" xmlns:xlink="http://www.w3.org/1999/xlink" viewBox="0,0,256,256" width="24px" height="24px"><g fill="none" fill-rule="nonzero" stroke="none" stroke-width="none" stroke-linecap="butt" stroke-linejoin="none" stroke-miterlimit="10" stroke-dasharray="" stroke-dashoffset="0" font-family="none" font-weight="none" font-size="none" text-anchor="none" style="mix-blend-mode: normal"><path transform="scale(10.66667,10.66667)" d="M22,12.1c0,4.2 -2.6,7.8 -6.3,9.3c-0.4,0.1 -0.7,-0.2 -0.7,-0.5v-2.6c0,-0.9 -0.4,-1.8 -1,-2.3c2.3,-0.5 4,-1.8 4,-4c0,-1.2 -0.5,-2.2 -1.2,-3c0.1,-0.2 0.2,-0.6 0.2,-1.4c0,-0.4 0,-1 -0.2,-1.6c0,0 -1.5,0 -2.8,1.3c-0.6,-0.2 -1.3,-0.3 -2,-0.3c-0.7,0 -1.4,0.1 -1.9,0.3c-1.4,-1.3 -2.8,-1.3 -2.8,-1.3c-0.3,0.6 -0.3,1.2 -0.3,1.6c0,0.7 0.1,1.2 0.2,1.4c-0.7,0.8 -1.2,1.9 -1.2,3c0,2.2 1.7,3.5 4,4c-0.6,0.4 -0.9,1.1 -1,1.8c-0.2,0.1 -0.5,0.2 -0.9,0.2c-0.3,0 -0.9,-0.2 -1.4,-1c-0.2,-0.3 -0.7,-1 -1.3,-1c-0.1,0 -0.4,0 -0.4,0.2c0,0.1 0.1,0.1 0.4,0.2c0.3,0.3 0.5,0.6 0.6,1c0.1,0.7 0.7,1.9 2.1,1.9c0.5,0 0.9,-0.1 0.9,-0.1v1.6c0,0.4 -0.3,0.6 -0.6,0.5c-4.1,-1.6 -6.8,-5.8 -6.3,-10.5c0.5,-4.5 4.2,-8.2 8.8,-8.7c6,-0.7 11.1,4 11.1,10z" id="strokeMainSVG" fill="#502a07" stroke="#502a07" stroke-width="2" stroke-linejoin="round"></path><g transform="scale(10.66667,10.66667)" fill="#77bda1" stroke="none" stroke-width="1" stroke-linejoin="miter"><path d="M10.9,2.1c-4.6,0.5 -8.3,4.2 -8.8,8.7c-0.5,4.7 2.2,8.9 6.3,10.5c0.3,0.1 0.6,-0.1 0.6,-0.5v-1.6c0,0 -0.4,0.1 -0.9,0.1c-1.4,0 -2,-1.2 -2.1,-1.9c-0.1,-0.4 -0.3,-0.7 -0.6,-1c-0.3,-0.1 -0.4,-0.1 -0.4,-0.2c0,-0.2 0.3,-0.2 0.4,-0.2c0.6,0 1.1,0.7 1.3,1c0.5,0.8 1.1,1 1.4,1c0.4,0 0.7,-0.1 0.9,-0.2c0.1,-0.7 0.4,-1.4 1,-1.8c-2.3,-0.5 -4,-1.8 -4,-4c0,-1.1 0.5,-2.2 1.2,-3c-0.1,-0.2 -0.2,-0.7 -0.2,-1.4c0,-0.4 0,-1 0.3,-1.6c0,0 1.4,0 2.8,1.3c0.5,-0.2 1.2,-0.3 1.9,-0.3c0.7,0 1.4,0.1 2,0.3c1.3,-1.3 2.8,-1.3 2.8,-1.3c0.2,0.6 0.2,1.2 0.2,1.6c0,0.8 -0.1,1.2 -0.2,1.4c0.7,0.8 1.2,1.8 1.2,3c0,2.2 -1.7,3.5 -4,4c0.6,0.5 1,1.4 1,2.3v2.6c0,0.3 0.3,0.6 0.7,0.5c3.7,-1.5 6.3,-5.1 6.3,-9.3c0,-6 -5.1,-10.7 -11.1,-10z"></path></g></g></svg>